<svg width="1495" height="1495" viewBox="0 0 1495 1495" fill="none" xmlns="http://www.w3.org/2000/svg">
<path d="M689.281 1089.2H812.234V1222.06H946.26V1351.43H812.234V1478.46H689.281V1351.43H555.838V1222.06H689.281V1089.2Z" fill="none" stroke="#7B1F2C" stroke-width="30" stroke-linejoin="round"/>
<path fill-rule="evenodd" clip-rule="evenodd" d="M1052.31 1331.61C1052.31 1331.61 1084.95 1301.9 1079.7 1222.06C1074.46 1142.23 1009.78 1089.2 1009.78 1089.2L911.879 1014.62C911.879 1014.62 945.094 982.566 973.648 968.581C1002.2 954.595 1046.5 948.838 1091.94 932.452C1136.47 916.395 1165.12 913.086 1203.82 885.835C1242.15 858.849 1264.69 839.592 1284.82 797.261C1300.8 763.645 1306.8 741.187 1304.63 704.026C1302.93 674.816 1284.82 631.769 1284.82 631.769C1284.82 631.769 1310.91 594.395 1319.78 567.087C1328.17 541.286 1330.39 525.447 1329.69 498.326C1328.62 456.577 1322.91 430.278 1299.39 395.768C1280.13 367.516 1233.54 338.078 1233.54 338.078C1233.54 338.078 1245.78 251.253 1203.24 200.557C1160.7 149.86 1130.98 146.364 1130.98 146.364L1072.71 136.457C1072.71 136.457 1052.9 70.6102 1005.7 43.8051C958.497 17 953.674 22.009 918.872 23.4099C889.137 24.6068 871.34 29.1326 845.449 43.8051C818.009 59.356 803.597 73.0521 787.76 100.329C778.105 116.959 770.279 146.364 770.279 146.364V980.818L902.556 1067.06C902.556 1067.06 989.208 1120.96 1020.85 1174.86C1038.13 1204.31 1046.54 1222.79 1052.31 1256.44C1057.28 1285.38 1052.31 1331.61 1052.31 1331.61ZM867.593 984.314L823.306 954.595L821.558 826.397C821.558 826.397 830.184 767.788 853.025 740.155C878.585 709.231 906.554 707.204 943.346 691.206C983.735 673.644 1014.29 681.215 1050.57 656.243C1078.02 637.346 1108.84 593.892 1108.84 593.892C1108.84 593.892 1113.37 566.748 1101.85 558.929C1092.62 552.667 1073.29 558.929 1073.29 558.929C1073.29 558.929 1059.45 582.147 1047.07 593.892C1027.42 612.528 985.885 626.524 985.885 626.524C985.885 626.524 919.933 639.549 882.743 659.739C856.821 673.813 821.558 704.026 821.558 704.026V160.932C821.558 160.932 823.831 145.617 827.385 136.457C835.46 115.649 845.142 104.845 863.514 92.1708C884.201 77.899 900.15 73.9765 925.282 74.1065C949.978 74.2342 966.218 77.234 985.885 92.1708C1005.75 107.256 1019.68 146.364 1019.68 146.364C1019.68 146.364 998.626 154.28 985.885 160.932C971.558 168.411 966.788 179.997 950.922 183.075C937.649 185.65 916.541 178.996 916.541 178.996L892.067 200.557C892.067 200.557 933.408 214.468 948.591 235.52C961.774 253.8 964.907 290.878 964.907 290.878L995.208 275.727C995.208 275.727 984.061 246.558 990.547 229.693C994.288 219.964 998.774 215.365 1006.28 208.132C1023.45 191.591 1039.65 188.786 1063.39 186.571C1082.33 184.804 1093.88 185.868 1111.75 192.399C1134.49 200.71 1146.54 210.486 1161.28 229.693C1178.07 251.562 1184.75 268.557 1185.17 296.123C1185.65 327.228 1157.2 370.711 1157.2 370.711C1157.2 370.711 1199.77 371.33 1221.89 384.696C1245.16 398.758 1253.76 414.408 1265.59 438.889C1278.33 465.251 1281.47 483.043 1280.74 512.311C1280 541.943 1275.96 559.852 1261.51 585.734C1249.95 606.446 1221.89 631.769 1221.89 631.769C1221.89 631.769 1242.41 651.684 1249.86 667.898C1261.66 693.591 1259.55 712.328 1254.52 740.155C1248.04 776.025 1236.26 796.799 1210.23 822.318C1187.96 844.154 1140.89 861.943 1140.89 861.943C1140.89 861.943 1139.18 810.799 1127.49 780.945C1116.67 753.317 1086.7 716.846 1086.7 716.846C1086.7 716.846 1070.79 712.615 1062.22 716.846C1050.9 722.434 1047.07 745.399 1047.07 745.399C1047.07 745.399 1077.5 771.538 1086.7 794.348C1098.44 823.473 1086.7 874.763 1086.7 874.763C1086.7 874.763 1073.29 888.748 1052.31 895.741C1031.34 902.733 986.467 912.057 952.087 926.625C917.707 941.193 867.593 984.314 867.593 984.314Z" fill="none" stroke="#7B1F2C" stroke-width="30" stroke-linejoin="round"/>
<path d="M961.411 428.4C982.263 419.796 996.993 420.999 1019.1 425.486C1044.64 430.671 1077.95 456.953 1077.95 456.953C1077.95 456.953 1095.77 453.715 1101.85 445.299C1108.53 436.045 1104.18 416.163 1104.18 416.163C1104.18 416.163 1070.29 388.116 1044.16 380.034C1025.74 374.339 1014.48 373.134 995.208 373.624C955.481 374.635 929.879 382.8 899.642 408.587C876.974 427.92 856.521 471.521 856.521 471.521C856.521 471.521 859.529 496.777 871.672 502.988C882.457 508.505 902.556 500.074 902.556 500.074C902.556 500.074 915.193 464.866 931.692 448.795C941.775 438.973 948.399 433.768 961.411 428.4Z" fill="none" stroke="#7B1F2C" stroke-width="30" stroke-linejoin="round"/>



<path d="M458.525 212.794C458.525 224.248 455.982 235.109 451.431 244.843C446.883 254.569 440.329 263.17 432.302 270.112C419.022 281.599 401.708 288.547 382.771 288.547C340.934 288.547 307.018 254.631 307.018 212.794C307.018 170.956 340.934 137.04 382.771 137.04C424.609 137.04 458.525 170.956 458.525 212.794Z" fill="none" stroke="#7B1F2C" stroke-width="30" stroke-linejoin="round"/>
<path d="M432.302 270.112C432.302 270.112 476.212 297.711 502.229 318.266C531.296 341.231 572.155 382.365 572.155 382.365L593.716 354.977C593.716 354.977 552.706 315.376 523.789 293.209C496.814 272.53 451.431 244.843 451.431 244.843C446.883 254.569 440.329 263.17 432.302 270.112Z" fill="none" stroke="#7B1F2C" stroke-width="30" stroke-linejoin="round"/>
<path d="M682.289 80.5164C682.289 115.596 653.851 144.033 618.772 144.033C597.371 144.033 578.441 133.448 566.933 117.228C560.529 108.2 556.423 97.4266 555.469 85.7609C555.328 84.0314 555.256 82.2823 555.256 80.5164C555.256 45.4373 583.693 17 618.772 17C653.851 17 682.289 45.4373 682.289 80.5164Z" fill="none" stroke="#7B1F2C" stroke-width="30" stroke-linejoin="round"/>
<path d="M508.056 137.623C530.092 127.301 566.933 117.228 566.933 117.228C560.529 108.2 556.423 97.4266 555.469 85.7609C555.469 85.7609 512.036 101.3 485.912 114.897C460.15 128.305 422.979 154.522 422.979 154.522L444.539 177.831C444.539 177.831 481.471 150.076 508.056 137.623Z" fill="none" stroke="#7B1F2C" stroke-width="30" stroke-linejoin="round"/>
<path d="M682.288 416.163C682.288 442.875 660.634 464.529 633.922 464.529C607.211 464.529 585.557 442.875 585.557 416.163C585.557 389.451 607.211 367.797 633.922 367.797C639.744 367.797 645.325 368.826 650.494 370.711C661.328 374.662 670.352 382.376 675.985 392.271C679.997 399.319 682.288 407.473 682.288 416.163Z" fill="none" stroke="#7B1F2C" stroke-width="30" stroke-linejoin="round"/>
<path d="M675.985 392.271C675.985 392.271 719.028 307.43 716.668 249.505C715.161 212.501 712.263 189.621 693.942 157.435C684.237 140.385 663.058 117.811 663.058 117.811L636.253 134.709C636.253 134.709 658.956 159.675 667.72 178.996C679.264 204.447 679.315 221.565 679.957 249.505C681.077 298.204 650.494 370.711 650.494 370.711C661.328 374.662 670.352 382.376 675.985 392.271Z" fill="none" stroke="#7B1F2C" stroke-width="30" stroke-linejoin="round"/>
<path d="M488.827 506.484C488.827 539.954 461.694 567.087 428.224 567.087C394.754 567.087 367.621 539.954 367.621 506.484C367.621 473.014 394.754 445.881 428.224 445.881C450.211 445.881 469.464 457.591 480.086 475.114C485.633 484.265 488.827 495.002 488.827 506.484Z" fill="none" stroke="#7B1F2C" stroke-width="30" stroke-linejoin="round"/>
<path d="M488.827 506.484C488.827 506.484 531.095 494.545 557.005 483.758C578.521 474.8 610.615 457.536 610.615 457.536L590.803 427.234C590.803 427.234 559.297 448.062 537.192 457.536C515.745 466.728 480.086 475.114 480.086 475.114C485.633 484.265 488.827 495.002 488.827 506.484Z" fill="none" stroke="#7B1F2C" stroke-width="30" stroke-linejoin="round"/>
<path d="M438.714 897.489C438.714 910.694 435.084 923.051 428.767 933.617C416.456 954.209 393.941 967.998 368.205 967.998C329.264 967.998 297.696 936.43 297.696 897.489C297.696 881.772 302.838 867.257 311.532 855.533C318.123 846.644 326.756 839.359 336.738 834.373C346.21 829.642 356.897 826.98 368.205 826.98C407.146 826.98 438.714 858.548 438.714 897.489Z" fill="none" stroke="#7B1F2C" stroke-width="30" stroke-linejoin="round"/>
<path d="M253.992 677.221L214.367 659.739C214.367 659.739 228.498 739.824 253.992 783.858C271.977 814.922 311.532 855.533 311.532 855.533C318.123 846.644 326.756 839.359 336.738 834.373C336.738 834.373 291.053 792.08 274.387 757.053C260.562 727.997 253.992 677.221 253.992 677.221Z" fill="none" stroke="#7B1F2C" stroke-width="30" stroke-linejoin="round"/>
<path d="M438.714 897.489C438.714 910.694 435.084 923.051 428.767 933.617C428.767 933.617 488.538 950.965 524.374 967.998C552.824 981.52 594.3 1008.21 594.3 1008.21L498.151 1082.79C498.151 1082.79 446.872 1128.79 429.973 1167.87C417.678 1196.3 412.291 1214.4 413.074 1245.37C413.959 1280.35 439.297 1331.03 439.297 1331.03C439.297 1331.03 434.141 1279.98 440.462 1248.29C446.224 1219.4 452.277 1203.14 467.267 1177.78C489.867 1139.54 514.626 1126.94 548.265 1097.94C610.029 1044.7 721.916 981.983 721.916 981.983V808.333C721.916 808.333 708.255 734.302 678.212 699.947C644.111 660.952 559.92 639.927 559.92 639.927H373.449C373.449 639.927 291.891 624.26 257.488 588.647C224.249 554.239 211.854 523.416 210.288 475.6C208.898 433.14 219.013 407.538 241.172 371.293C261.316 338.344 311.098 301.367 311.098 301.367L292.451 275.727C292.451 275.727 235.091 313.986 210.288 349.15C180.129 391.906 166.137 423.277 166.001 475.6C165.881 521.678 174.393 550.206 199.799 588.647C217.366 615.228 231.051 628.555 257.488 646.337C296.847 672.808 373.449 682.465 373.449 682.465C373.449 682.465 522.043 681.3 550.596 682.465C579.149 683.631 613.009 701.548 638.587 731.414C659.929 756.334 672.384 808.333 672.384 808.333V959.257L633.925 981.983C633.925 981.983 602.088 958.304 579.732 946.437C547.172 929.154 491.159 913.805 491.159 913.805L438.714 897.489Z" fill="none" stroke="#7B1F2C" stroke-width="30" stroke-linejoin="round"/>
</svg>
