<svg width="2084" height="1821" viewBox="0 0 2084 1821" fill="none" xmlns="http://www.w3.org/2000/svg">
<path d="M982.645 920H1088.14V1034H1203.14V1145H1088.14V1254H982.645V1145H868.145V1034H982.645V920Z" fill="white"/>
<path fill-rule="evenodd" clip-rule="evenodd" d="M1294.14 1128C1294.14 1128 1322.14 1102.5 1317.64 1034C1313.14 965.5 1257.64 920 1257.64 920L1173.64 856C1173.64 856 1202.14 828.5 1226.64 816.5C1251.14 804.5 1289.16 799.56 1328.14 785.5C1366.35 771.722 1390.94 768.883 1424.14 745.5C1457.03 722.345 1476.37 705.822 1493.64 669.5C1507.36 640.656 1512.5 621.386 1510.64 589.5C1509.18 564.437 1493.64 527.5 1493.64 527.5C1493.64 527.5 1516.03 495.431 1523.64 472C1530.84 449.862 1532.74 436.271 1532.14 413C1531.22 377.177 1526.33 354.612 1506.14 325C1489.62 300.759 1449.64 275.5 1449.64 275.5C1449.64 275.5 1460.14 201 1423.64 157.5C1387.14 114 1361.64 111 1361.64 111L1311.64 102.5C1311.64 102.5 1294.64 46.0002 1254.14 23.0002C1213.64 0.000257492 1209.51 4.29825 1179.64 5.50025C1154.13 6.52724 1138.86 10.4106 1116.64 23.0002C1093.1 36.3436 1080.73 48.0956 1067.14 71.5002C1058.86 85.77 1052.14 111 1052.14 111V827L1165.64 901C1165.64 901 1240 947.25 1267.14 993.5C1281.98 1018.77 1289.19 1034.62 1294.14 1063.5C1298.41 1088.33 1294.14 1128 1294.14 1128ZM1135.64 830L1097.64 804.5L1096.14 694.5C1096.14 694.5 1103.55 644.211 1123.14 620.5C1145.08 593.967 1169.08 592.227 1200.64 578.5C1235.3 563.431 1261.52 569.927 1292.64 548.5C1316.2 532.286 1342.64 495 1342.64 495C1342.64 495 1346.53 471.71 1336.64 465C1328.73 459.627 1312.14 465 1312.14 465C1312.14 465 1300.27 484.922 1289.64 495C1272.79 510.991 1237.14 523 1237.14 523C1237.14 523 1180.55 534.176 1148.64 551.5C1126.4 563.576 1096.14 589.5 1096.14 589.5V123.5C1096.14 123.5 1098.09 110.359 1101.14 102.5C1108.07 84.6459 1116.38 75.3757 1132.14 64.5002C1149.9 52.2544 1163.58 48.8887 1185.14 49.0002C1206.33 49.1099 1220.27 51.6838 1237.14 64.5002C1254.19 77.4445 1266.14 111 1266.14 111C1266.14 111 1248.08 117.793 1237.14 123.5C1224.85 129.918 1220.76 139.859 1207.14 142.5C1195.76 144.71 1177.64 139 1177.64 139L1156.64 157.5C1156.64 157.5 1192.12 169.437 1205.14 187.5C1216.46 203.186 1219.14 235 1219.14 235L1245.14 222C1245.14 222 1235.58 196.972 1241.14 182.5C1244.35 174.152 1248.2 170.206 1254.64 164C1269.37 149.807 1283.28 147.4 1303.64 145.5C1319.9 143.984 1329.81 144.897 1345.14 150.5C1364.66 157.632 1374.99 166.02 1387.64 182.5C1402.05 201.265 1407.78 215.847 1408.14 239.5C1408.56 266.19 1384.14 303.5 1384.14 303.5C1384.14 303.5 1420.67 304.031 1439.64 315.5C1459.61 327.566 1467 340.994 1477.14 362C1488.07 384.62 1490.77 399.887 1490.14 425C1489.51 450.425 1486.04 465.792 1473.64 488C1463.72 505.772 1439.64 527.5 1439.64 527.5C1439.64 527.5 1457.25 544.589 1463.64 558.5C1473.78 580.546 1471.96 596.624 1467.64 620.5C1462.08 651.279 1451.98 669.103 1429.64 691C1410.54 709.737 1370.14 725 1370.14 725C1370.14 725 1368.68 681.117 1358.64 655.5C1349.36 631.794 1323.64 600.5 1323.64 600.5C1323.64 600.5 1310 596.87 1302.64 600.5C1292.93 605.295 1289.64 625 1289.64 625C1289.64 625 1315.75 647.429 1323.64 667C1333.72 691.991 1323.64 736 1323.64 736C1323.64 736 1312.14 748 1294.14 754C1276.14 760 1237.64 768 1208.14 780.5C1178.64 793 1135.64 830 1135.64 830Z" fill="white"/>
<path d="M1216.14 353C1234.04 345.618 1246.68 346.65 1265.64 350.5C1287.56 354.949 1316.14 377.5 1316.14 377.5C1316.14 377.5 1331.43 374.722 1336.64 367.5C1342.38 359.56 1338.64 342.5 1338.64 342.5C1338.64 342.5 1309.57 318.435 1287.14 311.5C1271.34 306.614 1261.68 305.579 1245.14 306C1211.06 306.868 1189.09 313.873 1163.14 336C1143.69 352.589 1126.14 390 1126.14 390C1126.14 390 1128.73 411.671 1139.14 417C1148.4 421.734 1165.64 414.5 1165.64 414.5C1165.64 414.5 1176.49 384.29 1190.64 370.5C1199.3 362.073 1204.98 357.607 1216.14 353Z" fill="white"/>
<path d="M982.645 920H1088.14V1034H1203.14V1145H1088.14V1254H982.645V1145H868.145V1034H982.645V920Z" stroke="black"/>
<path fill-rule="evenodd" clip-rule="evenodd" d="M1294.14 1128C1294.14 1128 1322.14 1102.5 1317.64 1034C1313.14 965.5 1257.64 920 1257.64 920L1173.64 856C1173.64 856 1202.14 828.5 1226.64 816.5C1251.14 804.5 1289.16 799.56 1328.14 785.5C1366.35 771.722 1390.94 768.883 1424.14 745.5C1457.03 722.345 1476.37 705.822 1493.64 669.5C1507.36 640.656 1512.5 621.386 1510.64 589.5C1509.18 564.437 1493.64 527.5 1493.64 527.5C1493.64 527.5 1516.03 495.431 1523.64 472C1530.84 449.862 1532.74 436.271 1532.14 413C1531.22 377.177 1526.33 354.612 1506.14 325C1489.62 300.759 1449.64 275.5 1449.64 275.5C1449.64 275.5 1460.14 201 1423.64 157.5C1387.14 114 1361.64 111 1361.64 111L1311.64 102.5C1311.64 102.5 1294.64 46.0002 1254.14 23.0002C1213.64 0.000257492 1209.51 4.29825 1179.64 5.50025C1154.13 6.52724 1138.86 10.4106 1116.64 23.0002C1093.1 36.3436 1080.73 48.0956 1067.14 71.5002C1058.86 85.77 1052.14 111 1052.14 111V827L1165.64 901C1165.64 901 1240 947.25 1267.14 993.5C1281.98 1018.77 1289.19 1034.62 1294.14 1063.5C1298.41 1088.33 1294.14 1128 1294.14 1128ZM1135.64 830L1097.64 804.5L1096.14 694.5C1096.14 694.5 1103.55 644.211 1123.14 620.5C1145.08 593.967 1169.08 592.227 1200.64 578.5C1235.3 563.431 1261.52 569.927 1292.64 548.5C1316.2 532.286 1342.64 495 1342.64 495C1342.64 495 1346.53 471.71 1336.64 465C1328.73 459.627 1312.14 465 1312.14 465C1312.14 465 1300.27 484.922 1289.64 495C1272.79 510.991 1237.14 523 1237.14 523C1237.14 523 1180.55 534.176 1148.64 551.5C1126.4 563.576 1096.14 589.5 1096.14 589.5V123.5C1096.14 123.5 1098.09 110.359 1101.14 102.5C1108.07 84.6459 1116.38 75.3757 1132.14 64.5002C1149.9 52.2544 1163.58 48.8887 1185.14 49.0002C1206.33 49.1099 1220.27 51.6838 1237.14 64.5002C1254.19 77.4445 1266.14 111 1266.14 111C1266.14 111 1248.08 117.793 1237.14 123.5C1224.85 129.918 1220.76 139.859 1207.14 142.5C1195.76 144.71 1177.64 139 1177.64 139L1156.64 157.5C1156.64 157.5 1192.12 169.437 1205.14 187.5C1216.46 203.186 1219.14 235 1219.14 235L1245.14 222C1245.14 222 1235.58 196.972 1241.14 182.5C1244.35 174.152 1248.2 170.206 1254.64 164C1269.37 149.807 1283.28 147.4 1303.64 145.5C1319.9 143.984 1329.81 144.897 1345.14 150.5C1364.66 157.632 1374.99 166.02 1387.64 182.5C1402.05 201.265 1407.78 215.847 1408.14 239.5C1408.56 266.19 1384.14 303.5 1384.14 303.5C1384.14 303.5 1420.67 304.031 1439.64 315.5C1459.61 327.566 1467 340.994 1477.14 362C1488.07 384.62 1490.77 399.887 1490.14 425C1489.51 450.425 1486.04 465.792 1473.64 488C1463.72 505.772 1439.64 527.5 1439.64 527.5C1439.64 527.5 1457.25 544.589 1463.64 558.5C1473.78 580.546 1471.96 596.624 1467.64 620.5C1462.08 651.279 1451.98 669.103 1429.64 691C1410.54 709.737 1370.14 725 1370.14 725C1370.14 725 1368.68 681.117 1358.64 655.5C1349.36 631.794 1323.64 600.5 1323.64 600.5C1323.64 600.5 1310 596.87 1302.64 600.5C1292.93 605.295 1289.64 625 1289.64 625C1289.64 625 1315.75 647.429 1323.64 667C1333.72 691.991 1323.64 736 1323.64 736C1323.64 736 1312.14 748 1294.14 754C1276.14 760 1237.64 768 1208.14 780.5C1178.64 793 1135.64 830 1135.64 830Z" stroke="black"/>
<path d="M1216.14 353C1234.04 345.618 1246.68 346.65 1265.64 350.5C1287.56 354.949 1316.14 377.5 1316.14 377.5C1316.14 377.5 1331.43 374.722 1336.64 367.5C1342.38 359.56 1338.64 342.5 1338.64 342.5C1338.64 342.5 1309.57 318.435 1287.14 311.5C1271.34 306.614 1261.68 305.579 1245.14 306C1211.06 306.868 1189.09 313.873 1163.14 336C1143.69 352.589 1126.14 390 1126.14 390C1126.14 390 1128.73 411.671 1139.14 417C1148.4 421.734 1165.64 414.5 1165.64 414.5C1165.64 414.5 1176.49 384.29 1190.64 370.5C1199.3 362.073 1204.98 357.607 1216.14 353Z" stroke="black"/>
<path d="M784.645 168C784.645 177.829 782.463 187.148 778.558 195.5C774.655 203.845 769.032 211.225 762.145 217.182C750.749 227.038 735.893 233 719.645 233C683.746 233 654.645 203.899 654.645 168C654.645 132.101 683.746 103 719.645 103C755.543 103 784.645 132.101 784.645 168Z" fill="white"/>
<path d="M762.145 217.182C762.145 217.182 799.821 240.863 822.145 258.5C847.086 278.205 882.145 313.5 882.145 313.5L900.645 290C900.645 290 865.457 256.021 840.645 237C817.499 219.257 778.558 195.5 778.558 195.5C774.655 203.845 769.032 211.225 762.145 217.182Z" fill="white"/>
<path d="M976.645 54.5C976.645 84.5995 952.244 109 922.145 109C903.781 109 887.539 99.9177 877.664 86C872.169 78.2538 868.646 69.0097 867.828 59C867.706 57.516 867.645 56.0152 867.645 54.5C867.645 24.4005 892.045 0 922.145 0C952.244 0 976.645 24.4005 976.645 54.5Z" fill="white"/>
<path d="M827.145 103.5C846.052 94.6433 877.664 86 877.664 86C872.169 78.2538 868.646 69.0097 867.828 59C867.828 59 830.56 72.3337 808.145 84C786.039 95.5049 754.145 118 754.145 118L772.645 138C772.645 138 804.333 114.185 827.145 103.5Z" fill="white"/>
<path d="M976.645 342.5C976.645 365.42 958.064 384 935.145 384C912.225 384 893.645 365.42 893.645 342.5C893.645 319.58 912.225 301 935.145 301C940.14 301 944.928 301.882 949.364 303.5C958.66 306.89 966.403 313.509 971.236 322C974.678 328.047 976.645 335.044 976.645 342.5Z" fill="white"/>
<path d="M971.236 322C971.236 322 1008.17 249.203 1006.14 199.5C1004.85 167.749 1002.36 148.117 986.645 120.5C978.317 105.87 960.145 86.5 960.145 86.5L937.145 101C937.145 101 956.625 122.421 964.145 139C974.05 160.838 974.093 175.526 974.645 199.5C975.606 241.286 949.364 303.5 949.364 303.5C958.66 306.89 966.403 313.509 971.236 322Z" fill="white"/>
<path d="M810.645 420C810.645 448.719 787.363 472 758.645 472C729.926 472 706.645 448.719 706.645 420C706.645 391.281 729.926 368 758.645 368C777.511 368 794.03 378.047 803.145 393.083C807.904 400.935 810.645 410.147 810.645 420Z" fill="white"/>
<path d="M810.645 420C810.645 420 846.913 409.756 869.145 400.5C887.606 392.814 915.145 378 915.145 378L898.145 352C898.145 352 871.111 369.871 852.145 378C833.742 385.887 803.145 393.083 803.145 393.083C807.904 400.935 810.645 410.147 810.645 420Z" fill="white"/>
<path d="M767.646 755.5C767.646 766.831 764.531 777.434 759.111 786.5C748.547 804.169 729.228 816 707.146 816C673.732 816 646.646 788.913 646.646 755.5C646.646 742.015 651.058 729.56 658.517 719.5C664.173 711.873 671.581 705.622 680.146 701.344C688.273 697.284 697.443 695 707.146 695C740.559 695 767.646 722.087 767.646 755.5Z" fill="white"/>
<path d="M609.146 566.5L575.146 551.5C575.146 551.5 587.27 620.217 609.146 658C624.577 684.654 658.517 719.5 658.517 719.5C664.173 711.873 671.581 705.622 680.146 701.344C680.146 701.344 640.946 665.055 626.646 635C614.783 610.068 609.146 566.5 609.146 566.5Z" fill="white"/>
<path d="M767.646 755.5C767.646 766.831 764.531 777.434 759.111 786.5C759.111 786.5 810.397 801.385 841.146 816C865.557 827.603 901.146 850.5 901.146 850.5L818.646 914.5C818.646 914.5 774.646 953.968 760.146 987.5C749.596 1011.9 744.973 1027.43 745.646 1054C746.405 1084.01 768.146 1127.5 768.146 1127.5C768.146 1127.5 763.722 1083.69 769.146 1056.5C774.089 1031.71 779.284 1017.76 792.146 996C811.537 963.194 832.782 952.383 861.646 927.5C914.641 881.814 1010.65 828 1010.65 828V679C1010.65 679 998.924 615.479 973.146 586C943.886 552.54 871.646 534.5 871.646 534.5H711.646C711.646 534.5 641.665 521.057 612.146 490.5C583.625 460.976 572.989 434.528 571.646 393.5C570.453 357.068 579.132 335.1 598.146 304C615.43 275.728 658.146 244 658.146 244L642.146 222C642.146 222 592.928 254.828 571.646 285C545.768 321.687 533.762 348.605 533.646 393.5C533.543 433.037 540.846 457.515 562.646 490.5C577.719 513.307 589.461 524.743 612.146 540C645.917 562.714 711.646 571 711.646 571C711.646 571 839.146 570 863.646 571C888.146 572 917.199 587.374 939.146 613C957.458 634.383 968.146 679 968.146 679V808.5L935.146 828C935.146 828 907.828 807.682 888.646 797.5C860.707 782.67 812.646 769.5 812.646 769.5L767.646 755.5Z" fill="white"/>
<path d="M198.645 1509L215.645 1468C215.645 1468 156.509 1440.32 116.645 1442.5C83.717 1444.3 60.0052 1445.24 36.1445 1468C17.9474 1485.36 7.31798 1500.35 7.14453 1525.5C6.96867 1551 17.17 1566.97 36.1445 1584C57.1908 1602.89 105.145 1606 105.145 1606C105.145 1606 163.145 1615.82 171.645 1622C180.145 1628.18 188.546 1637.54 188.645 1650.5C188.745 1663.63 177.645 1675 171.645 1679.5C165.645 1684 135.971 1693.13 112.145 1693C88.889 1692.87 75.8297 1687.9 54.1445 1679.5C38.8362 1673.57 16.6445 1660.5 16.6445 1660.5L0.644531 1693C0.644531 1693 39.7086 1718.62 68.1445 1725.5C84.953 1729.57 94.8583 1729.99 112.145 1730.5C135.453 1731.18 149.804 1733.67 171.645 1725.5C189.601 1718.78 200.506 1713.34 212.645 1698.5C225.365 1682.95 231.092 1670.59 231.145 1650.5C231.202 1628.45 224.649 1614.18 209.145 1598.5C194.088 1583.28 179.639 1582.2 159.145 1576C138.682 1569.81 122.645 1570 105.145 1567C87.6445 1564 72.3728 1562.24 60.1445 1547.5C54.0117 1540.11 49.8878 1535.08 49.1445 1525.5C48.0557 1511.47 56.1675 1503.39 66.6445 1494C81.6293 1480.56 96.5345 1482.33 116.645 1481.5C138.457 1480.6 151.813 1482.37 171.645 1491.5C183.059 1496.75 198.645 1509 198.645 1509Z" fill="white"/>
<path d="M255.145 1453L361.645 1679.5L386.645 1615L310.145 1453H255.145Z" fill="white"/>
<path d="M494.145 1453H547.645L400.145 1781.5L381.145 1804.5L354.645 1816.5H327.645L494.145 1453Z" fill="white"/>
<path d="M563.645 1724H613.145V1566.5C613.145 1566.5 618.8 1526.63 635.145 1509C654.72 1487.88 675.352 1482.57 704.145 1483C731.844 1483.41 751.569 1488.45 770.145 1509C786.13 1526.69 790.645 1566.5 790.645 1566.5V1724H835.145V1566.5C835.145 1566.5 832.729 1529.44 822.145 1509C809.067 1483.74 795.411 1471.06 770.145 1458C746.775 1445.92 730.452 1444.72 704.145 1444.5C676.688 1444.27 659.835 1445.99 635.145 1458C608.415 1471 593.13 1483.04 578.645 1509C567.335 1529.26 563.645 1566.5 563.645 1566.5V1724Z" fill="white"/>
<path fill-rule="evenodd" clip-rule="evenodd" d="M906.645 1475.5L929.645 1509C929.645 1509 984.126 1479.9 1021.14 1483C1049.84 1485.4 1071.79 1486.82 1090.14 1509C1098.5 1519.09 1105.14 1539 1105.14 1539V1566.5H978.145C978.145 1566.5 945.593 1574.4 929.645 1587.5C909.693 1603.89 897.495 1618.72 896.145 1644.5C894.66 1672.84 907.723 1690.97 929.645 1709C945.526 1722.06 957.998 1725.38 978.145 1729.5C998.615 1733.68 1011.11 1733.35 1031.64 1729.5C1050.04 1726.05 1061.1 1723.43 1076.64 1713C1089.83 1704.15 1105.14 1684 1105.14 1684V1724H1151.64V1539C1151.64 1539 1140.61 1501.29 1124.64 1483C1109.69 1465.86 1098.05 1457.69 1076.64 1450C1056.15 1442.64 1042.92 1444.64 1021.14 1444.5C997.81 1444.35 984.184 1443.96 961.645 1450C938.777 1456.13 906.645 1475.5 906.645 1475.5ZM1105.14 1639.5V1601C1105.14 1601 993.145 1601 981.145 1604C969.145 1607 961.645 1610.5 961.645 1610.5C961.645 1610.5 942.703 1629.2 942.145 1644.5C941.662 1657.73 945.907 1666.06 954.645 1676C966.089 1689.02 978.578 1689.97 995.645 1693C1009.49 1695.46 1017.75 1695.16 1031.64 1693C1050.21 1690.11 1061.57 1687.22 1076.64 1676C1091.15 1665.2 1105.14 1639.5 1105.14 1639.5Z" fill="white"/>
<path fill-rule="evenodd" clip-rule="evenodd" d="M1213.14 1450H1257.64V1503C1257.64 1503 1286.75 1467.12 1312.64 1455.5C1333.33 1446.22 1346.98 1445.05 1369.64 1444.5C1395.57 1443.87 1411.56 1444.7 1435.14 1455.5C1460.81 1467.26 1474.03 1479.48 1489.64 1503C1508.53 1531.45 1512.2 1553.35 1512.14 1587.5C1512.09 1621.46 1509.69 1644.09 1489.64 1671.5C1473.85 1693.09 1459.26 1705.93 1435.14 1717.5C1411.36 1728.91 1396.02 1729.9 1369.64 1729.5C1344.78 1729.12 1330.05 1728.29 1307.64 1717.5C1285.62 1706.89 1257.64 1676 1257.64 1676V1820.5H1213.14V1450ZM1312.64 1494.5C1332.76 1484.05 1347.02 1482.08 1369.64 1483.5C1397.04 1485.22 1414.62 1490.78 1435.14 1509C1459.73 1530.82 1463.92 1554.65 1465.14 1587.5C1466.49 1623.41 1458.3 1645.56 1430.64 1668.5C1409.87 1685.72 1394.63 1691.78 1367.64 1691.5C1344.36 1691.25 1332.43 1688.27 1312.64 1676C1277.64 1654.29 1257.95 1627.19 1257.64 1586C1257.34 1544.31 1275.65 1513.72 1312.64 1494.5Z" fill="white"/>
<path d="M1738.14 1505.5L1755.14 1468C1755.14 1468 1696.25 1440.48 1656.64 1443C1624.91 1445.02 1602.42 1446.33 1579.14 1468C1560.1 1485.73 1548.1 1501.5 1549.14 1527.5C1550.11 1551.6 1561.32 1565.25 1579.14 1581.5C1602.6 1602.88 1656.64 1606 1656.64 1606L1720.64 1625.5C1720.64 1625.5 1728.53 1640 1728.14 1650C1727.8 1658.89 1720.64 1671.5 1720.64 1671.5C1720.64 1671.5 1683.1 1687.53 1656.64 1689C1625.18 1690.75 1591.64 1678 1579.14 1671.5C1566.64 1665 1559.14 1660 1559.14 1660L1543.64 1694C1543.64 1694 1564.57 1707.35 1579.14 1713.5C1607.58 1725.5 1625.78 1728.89 1656.64 1729C1681.94 1729.09 1697.74 1729.73 1720.64 1719C1758.14 1701.43 1772.14 1671.5 1772.14 1671.5C1772.14 1671.5 1772.14 1658.4 1772.14 1650C1772.14 1641.99 1772.14 1629.5 1772.14 1629.5C1772.14 1629.5 1759.1 1606.73 1746.64 1596C1727.2 1579.24 1685.64 1571.5 1685.64 1571.5L1615.64 1554.5C1615.64 1554.5 1594.17 1541.38 1591.64 1527.5C1588.7 1511.35 1597.82 1500.25 1610.64 1490C1624.95 1478.57 1638.34 1481.41 1656.64 1481C1689.87 1480.26 1738.14 1505.5 1738.14 1505.5Z" fill="white"/>
<path fill-rule="evenodd" clip-rule="evenodd" d="M2082.64 1607H1850.64C1850.64 1607 1861.08 1641.93 1876.14 1659C1896.85 1682.46 1915.94 1688.12 1947.14 1690.5C1975.74 1692.69 2019.14 1676 2019.14 1676L2040.64 1661L2065.64 1690.5C2065.64 1690.5 2038.9 1711.05 2019.14 1719C1992.73 1729.63 1975.6 1731.64 1947.14 1730.5C1917.14 1729.29 1898.38 1726.96 1872.64 1711.5C1849.21 1697.42 1837.64 1687.19 1823.14 1664C1811.08 1644.69 1805.81 1629.47 1802.14 1607C1799.51 1590.81 1802.14 1565 1802.14 1565C1802.14 1565 1812.02 1530.28 1824.14 1511C1838.62 1487.97 1849.03 1474.51 1872.64 1461C1898.47 1446.22 1917.39 1442.29 1947.14 1442.5C1975.95 1442.71 1994.32 1446.39 2019.14 1461C2042.12 1474.53 2052.72 1487.68 2065.64 1511C2076.36 1530.34 2082.64 1565 2082.64 1565V1607ZM1850.64 1565H2040.64C2040.64 1565 2033.14 1531.5 2016.64 1511C1997.86 1487.66 1947.14 1484.5 1947.14 1484.5C1947.14 1484.5 1905.14 1481 1872.64 1513.5C1856.54 1529.6 1850.64 1565 1850.64 1565Z" fill="white"/>
<path d="M198.645 1509L215.645 1468C215.645 1468 156.509 1440.32 116.645 1442.5C83.717 1444.3 60.0052 1445.24 36.1445 1468C17.9474 1485.36 7.31798 1500.35 7.14453 1525.5C6.96867 1551 17.17 1566.97 36.1445 1584C57.1908 1602.89 105.145 1606 105.145 1606C105.145 1606 163.145 1615.82 171.645 1622C180.145 1628.18 188.546 1637.54 188.645 1650.5C188.745 1663.63 177.645 1675 171.645 1679.5C165.645 1684 135.971 1693.13 112.145 1693C88.889 1692.87 75.8297 1687.9 54.1445 1679.5C38.8362 1673.57 16.6445 1660.5 16.6445 1660.5L0.644531 1693C0.644531 1693 39.7086 1718.62 68.1445 1725.5C84.953 1729.57 94.8583 1729.99 112.145 1730.5C135.453 1731.18 149.804 1733.67 171.645 1725.5C189.601 1718.78 200.506 1713.34 212.645 1698.5C225.365 1682.95 231.092 1670.59 231.145 1650.5C231.202 1628.45 224.649 1614.18 209.145 1598.5C194.088 1583.28 179.639 1582.2 159.145 1576C138.682 1569.81 122.645 1570 105.145 1567C87.6445 1564 72.3728 1562.24 60.1445 1547.5C54.0117 1540.11 49.8878 1535.08 49.1445 1525.5C48.0557 1511.47 56.1675 1503.39 66.6445 1494C81.6293 1480.56 96.5345 1482.33 116.645 1481.5C138.457 1480.6 151.813 1482.37 171.645 1491.5C183.059 1496.75 198.645 1509 198.645 1509Z" stroke="black"/>
<path d="M255.145 1453L361.645 1679.5L386.645 1615L310.145 1453H255.145Z" stroke="black"/>
<path d="M494.145 1453H547.645L400.145 1781.5L381.145 1804.5L354.645 1816.5H327.645L494.145 1453Z" stroke="black"/>
<path d="M563.645 1724H613.145V1566.5C613.145 1566.5 618.8 1526.63 635.145 1509C654.72 1487.88 675.352 1482.57 704.145 1483C731.844 1483.41 751.569 1488.45 770.145 1509C786.13 1526.69 790.645 1566.5 790.645 1566.5V1724H835.145V1566.5C835.145 1566.5 832.729 1529.44 822.145 1509C809.067 1483.74 795.411 1471.06 770.145 1458C746.775 1445.92 730.452 1444.72 704.145 1444.5C676.688 1444.27 659.835 1445.99 635.145 1458C608.415 1471 593.13 1483.04 578.645 1509C567.335 1529.26 563.645 1566.5 563.645 1566.5V1724Z" stroke="black"/>
<path fill-rule="evenodd" clip-rule="evenodd" d="M906.645 1475.5L929.645 1509C929.645 1509 984.126 1479.9 1021.14 1483C1049.84 1485.4 1071.79 1486.82 1090.14 1509C1098.5 1519.09 1105.14 1539 1105.14 1539V1566.5H978.145C978.145 1566.5 945.593 1574.4 929.645 1587.5C909.693 1603.89 897.495 1618.72 896.145 1644.5C894.66 1672.84 907.723 1690.97 929.645 1709C945.526 1722.06 957.998 1725.38 978.145 1729.5C998.615 1733.68 1011.11 1733.35 1031.64 1729.5C1050.04 1726.05 1061.1 1723.43 1076.64 1713C1089.83 1704.15 1105.14 1684 1105.14 1684V1724H1151.64V1539C1151.64 1539 1140.61 1501.29 1124.64 1483C1109.69 1465.86 1098.05 1457.69 1076.64 1450C1056.15 1442.64 1042.92 1444.64 1021.14 1444.5C997.81 1444.35 984.184 1443.96 961.645 1450C938.777 1456.13 906.645 1475.5 906.645 1475.5ZM1105.14 1639.5V1601C1105.14 1601 993.145 1601 981.145 1604C969.145 1607 961.645 1610.5 961.645 1610.5C961.645 1610.5 942.703 1629.2 942.145 1644.5C941.662 1657.73 945.907 1666.06 954.645 1676C966.089 1689.02 978.578 1689.97 995.645 1693C1009.49 1695.46 1017.75 1695.16 1031.64 1693C1050.21 1690.11 1061.57 1687.22 1076.64 1676C1091.15 1665.2 1105.14 1639.5 1105.14 1639.5Z" stroke="black"/>
<path fill-rule="evenodd" clip-rule="evenodd" d="M1213.14 1450H1257.64V1503C1257.64 1503 1286.75 1467.12 1312.64 1455.5C1333.33 1446.22 1346.98 1445.05 1369.64 1444.5C1395.57 1443.87 1411.56 1444.7 1435.14 1455.5C1460.81 1467.26 1474.03 1479.48 1489.64 1503C1508.53 1531.45 1512.2 1553.35 1512.14 1587.5C1512.09 1621.46 1509.69 1644.09 1489.64 1671.5C1473.85 1693.09 1459.26 1705.93 1435.14 1717.5C1411.36 1728.91 1396.02 1729.9 1369.64 1729.5C1344.78 1729.12 1330.05 1728.29 1307.64 1717.5C1285.62 1706.89 1257.64 1676 1257.64 1676V1820.5H1213.14V1450ZM1312.64 1494.5C1332.76 1484.05 1347.02 1482.08 1369.64 1483.5C1397.04 1485.22 1414.62 1490.78 1435.14 1509C1459.73 1530.82 1463.92 1554.65 1465.14 1587.5C1466.49 1623.41 1458.3 1645.56 1430.64 1668.5C1409.87 1685.72 1394.63 1691.78 1367.64 1691.5C1344.36 1691.25 1332.43 1688.27 1312.64 1676C1277.64 1654.29 1257.95 1627.19 1257.64 1586C1257.34 1544.31 1275.65 1513.72 1312.64 1494.5Z" stroke="black"/>
<path d="M1738.14 1505.5L1755.14 1468C1755.14 1468 1696.25 1440.48 1656.64 1443C1624.91 1445.02 1602.42 1446.33 1579.14 1468C1560.1 1485.73 1548.1 1501.5 1549.14 1527.5C1550.11 1551.6 1561.32 1565.25 1579.14 1581.5C1602.6 1602.88 1656.64 1606 1656.64 1606L1720.64 1625.5C1720.64 1625.5 1728.53 1640 1728.14 1650C1727.8 1658.89 1720.64 1671.5 1720.64 1671.5C1720.64 1671.5 1683.1 1687.53 1656.64 1689C1625.18 1690.75 1591.64 1678 1579.14 1671.5C1566.64 1665 1559.14 1660 1559.14 1660L1543.64 1694C1543.64 1694 1564.57 1707.35 1579.14 1713.5C1607.58 1725.5 1625.78 1728.89 1656.64 1729C1681.94 1729.09 1697.74 1729.73 1720.64 1719C1758.14 1701.43 1772.14 1671.5 1772.14 1671.5C1772.14 1671.5 1772.14 1658.4 1772.14 1650C1772.14 1641.99 1772.14 1629.5 1772.14 1629.5C1772.14 1629.5 1759.1 1606.73 1746.64 1596C1727.2 1579.24 1685.64 1571.5 1685.64 1571.5L1615.64 1554.5C1615.64 1554.5 1594.17 1541.38 1591.64 1527.5C1588.7 1511.35 1597.82 1500.25 1610.64 1490C1624.95 1478.57 1638.34 1481.41 1656.64 1481C1689.87 1480.26 1738.14 1505.5 1738.14 1505.5Z" stroke="black"/>
<path fill-rule="evenodd" clip-rule="evenodd" d="M2082.64 1607H1850.64C1850.64 1607 1861.08 1641.93 1876.14 1659C1896.85 1682.46 1915.94 1688.12 1947.14 1690.5C1975.74 1692.69 2019.14 1676 2019.14 1676L2040.64 1661L2065.64 1690.5C2065.64 1690.5 2038.9 1711.05 2019.14 1719C1992.73 1729.63 1975.6 1731.64 1947.14 1730.5C1917.14 1729.29 1898.38 1726.96 1872.64 1711.5C1849.21 1697.42 1837.64 1687.19 1823.14 1664C1811.08 1644.69 1805.81 1629.47 1802.14 1607C1799.51 1590.81 1802.14 1565 1802.14 1565C1802.14 1565 1812.02 1530.28 1824.14 1511C1838.62 1487.97 1849.03 1474.51 1872.64 1461C1898.47 1446.22 1917.39 1442.29 1947.14 1442.5C1975.95 1442.71 1994.32 1446.39 2019.14 1461C2042.12 1474.53 2052.72 1487.68 2065.64 1511C2076.36 1530.34 2082.64 1565 2082.64 1565V1607ZM1850.64 1565H2040.64C2040.64 1565 2033.14 1531.5 2016.64 1511C1997.86 1487.66 1947.14 1484.5 1947.14 1484.5C1947.14 1484.5 1905.14 1481 1872.64 1513.5C1856.54 1529.6 1850.64 1565 1850.64 1565Z" stroke="black"/>
</svg>
