<svg width="2084" height="380" viewBox="0 0 2084 380" fill="none" xmlns="http://www.w3.org/2000/svg">
<path d="M198.645 67.1225L215.645 26.1225C215.645 26.1225 156.509 -1.55922 116.645 0.622506C83.717 2.42459 60.0052 3.3599 36.1445 26.1225C17.9474 43.4822 7.31798 58.4737 7.14453 83.6225C6.96867 109.121 17.17 125.089 36.1445 142.123C57.1908 161.016 105.145 164.123 105.145 164.123C105.145 164.123 163.145 173.942 171.645 180.123C180.145 186.303 188.546 195.663 188.645 208.623C188.745 221.75 177.645 233.122 171.645 237.623C165.645 242.123 135.971 251.255 112.145 251.123C88.889 250.993 75.8297 246.024 54.1445 237.623C38.8362 231.691 16.6445 218.623 16.6445 218.623L0.644531 251.123C0.644531 251.123 39.7086 276.741 68.1445 283.622C84.953 287.69 94.8583 288.116 112.145 288.622C135.453 289.306 149.804 291.792 171.645 283.622C189.601 276.906 200.506 271.461 212.645 256.622C225.365 241.073 231.092 228.712 231.145 208.623C231.202 186.573 224.649 172.3 209.145 156.623C194.088 141.398 179.639 140.325 159.145 134.123C138.682 127.929 122.645 128.123 105.145 125.123C87.6445 122.122 72.3728 120.363 60.1445 105.623C54.0117 98.2295 49.8878 93.1993 49.1445 83.6225C48.0557 69.5923 56.1675 61.5175 66.6445 52.1225C81.6293 38.6853 96.5345 40.4539 116.645 39.6225C138.457 38.7207 151.813 40.4951 171.645 49.6225C183.059 54.876 198.645 67.1225 198.645 67.1225Z" fill="none" stroke="#7B1F2C" stroke-width="9" stroke-linejoin="round"/>
<path d="M255.145 11.1225L361.645 237.623L386.645 173.123L310.145 11.1225H255.145Z" fill="none" stroke="#7B1F2C" stroke-width="9" stroke-linejoin="round"/>
<path d="M494.145 11.1225H547.645L400.145 339.622L381.145 362.622L354.645 374.622H327.645L494.145 11.1225Z" fill="none" stroke="#7B1F2C" stroke-width="9" stroke-linejoin="round"/>
<path d="M563.645 282.122H613.145V124.623C613.145 124.623 618.8 84.755 635.145 67.1225C654.72 46.0042 675.352 40.6931 704.145 41.1225C731.844 41.5356 751.569 46.5711 770.145 67.1225C786.13 84.8082 790.645 124.623 790.645 124.623V282.122H835.145V124.623C835.145 124.623 832.729 87.5671 822.145 67.1225C809.067 41.8629 795.411 29.187 770.145 16.1225C746.775 4.03893 730.452 2.84746 704.145 2.62251C676.688 2.38773 659.835 4.11166 635.145 16.1225C608.415 29.1251 593.13 41.1669 578.645 67.1225C567.335 87.3869 563.645 124.623 563.645 124.623V282.122Z" fill="none" stroke="#7B1F2C" stroke-width="9" stroke-linejoin="round"/>
<path fill-rule="evenodd" clip-rule="evenodd" d="M906.645 33.6225L929.645 67.1225C929.645 67.1225 984.126 38.0242 1021.14 41.1225C1049.84 43.5242 1071.79 44.9376 1090.14 67.1225C1098.5 77.214 1105.14 97.1225 1105.14 97.1225V124.623H978.145C978.145 124.623 945.593 132.522 929.645 145.623C909.693 162.011 897.495 176.838 896.145 202.623C894.66 230.967 907.723 249.092 929.645 267.122C945.526 280.185 957.998 283.506 978.145 287.622C998.615 291.805 1011.11 291.475 1031.64 287.622C1050.04 284.171 1061.1 281.555 1076.64 271.122C1089.83 262.272 1105.14 242.123 1105.14 242.123V282.122H1151.64V97.1225C1151.64 97.1225 1140.61 59.4147 1124.64 41.1225C1109.69 23.9836 1098.05 15.8145 1076.64 8.12251C1056.15 0.757662 1042.92 2.76629 1021.14 2.62251C997.81 2.46846 984.184 2.08047 961.645 8.12251C938.777 14.2525 906.645 33.6225 906.645 33.6225ZM1105.14 197.623V159.123C1105.14 159.123 993.145 159.123 981.145 162.123C969.145 165.123 961.645 168.623 961.645 168.623C961.645 168.623 942.703 187.326 942.145 202.623C941.662 215.848 945.907 224.182 954.645 234.123C966.089 247.141 978.578 248.092 995.645 251.123C1009.49 253.581 1017.75 253.284 1031.64 251.123C1050.21 248.235 1061.57 245.339 1076.64 234.123C1091.15 223.324 1105.14 197.623 1105.14 197.623Z" fill="none" stroke="#7B1F2C" stroke-width="9" stroke-linejoin="round"/>
<path fill-rule="evenodd" clip-rule="evenodd" d="M1213.14 8.12251H1257.64V61.1225C1257.64 61.1225 1286.75 25.2376 1312.64 13.6225C1333.33 4.34416 1346.98 3.17227 1369.64 2.62251C1395.57 1.99352 1411.56 2.81776 1435.14 13.6225C1460.81 25.3834 1474.03 37.6013 1489.64 61.1225C1508.53 89.5727 1512.2 111.473 1512.14 145.623C1512.09 179.583 1509.69 202.209 1489.64 229.623C1473.85 251.217 1459.26 264.05 1435.14 275.623C1411.36 287.033 1396.02 288.027 1369.64 287.622C1344.78 287.241 1330.05 286.412 1307.64 275.623C1285.62 265.015 1257.64 234.123 1257.64 234.123V378.622H1213.14V8.12251ZM1312.64 52.6225C1332.76 42.1723 1347.02 40.1997 1369.64 41.6225C1397.04 43.3452 1414.62 48.8994 1435.14 67.1225C1459.73 88.9452 1463.92 112.774 1465.14 145.623C1466.49 181.53 1458.3 203.686 1430.64 226.623C1409.87 243.847 1394.63 249.908 1367.64 249.623C1344.36 249.377 1332.43 246.397 1312.64 234.123C1277.64 212.409 1257.95 185.312 1257.64 144.123C1257.34 102.432 1275.65 71.8406 1312.64 52.6225Z" fill="none" stroke="#7B1F2C" stroke-width="9" stroke-linejoin="round"/>
<path d="M1738.14 63.6225L1755.14 26.1225C1755.14 26.1225 1696.25 -1.39523 1656.64 1.12251C1624.91 3.14001 1602.42 4.45337 1579.14 26.1225C1560.1 43.8541 1548.1 59.6208 1549.14 85.6225C1550.11 109.727 1561.32 123.371 1579.14 139.623C1602.6 161.006 1656.64 164.123 1656.64 164.123L1720.64 183.623C1720.64 183.623 1728.53 198.124 1728.14 208.123C1727.8 217.008 1720.64 229.623 1720.64 229.623C1720.64 229.623 1683.1 245.653 1656.64 247.123C1625.18 248.871 1591.64 236.123 1579.14 229.623C1566.64 223.122 1559.14 218.123 1559.14 218.123L1543.64 252.123C1543.64 252.123 1564.57 265.473 1579.14 271.622C1607.58 283.623 1625.78 287.013 1656.64 287.122C1681.94 287.212 1697.74 287.854 1720.64 277.122C1758.14 259.555 1772.14 229.623 1772.14 229.623C1772.14 229.623 1772.14 216.519 1772.14 208.123C1772.14 200.117 1772.14 187.623 1772.14 187.623C1772.14 187.623 1759.1 164.857 1746.64 154.123C1727.2 137.361 1685.64 129.623 1685.64 129.623L1615.64 112.623C1615.64 112.623 1594.17 99.5014 1591.64 85.6225C1588.7 69.4715 1597.82 58.3695 1610.64 48.1225C1624.95 36.6973 1638.34 39.5282 1656.64 39.1225C1689.87 38.3859 1738.14 63.6225 1738.14 63.6225Z" fill="none" stroke="#7B1F2C" stroke-width="9" stroke-linejoin="round"/>
<path fill-rule="evenodd" clip-rule="evenodd" d="M2082.64 165.123H1850.64C1850.64 165.123 1861.08 200.05 1876.14 217.123C1896.85 240.583 1915.94 246.238 1947.14 248.623C1975.74 250.808 2019.14 234.123 2019.14 234.123L2040.64 219.123L2065.64 248.623C2065.64 248.623 2038.9 269.169 2019.14 277.122C1992.73 287.755 1975.6 289.766 1947.14 288.622C1917.14 287.417 1898.38 285.085 1872.64 269.622C1849.21 255.541 1837.64 245.31 1823.14 222.123C1811.08 202.812 1805.81 187.597 1802.14 165.123C1799.51 148.934 1802.14 123.123 1802.14 123.123C1802.14 123.123 1812.02 88.3996 1824.14 69.1225C1838.62 46.0935 1849.03 32.6319 1872.64 19.1225C1898.47 4.34459 1917.39 0.410767 1947.14 0.622559C1975.95 0.827562 1994.32 4.50795 2019.14 19.1225C2042.12 32.6521 2052.72 45.7984 2065.64 69.1225C2076.36 88.461 2082.64 123.123 2082.64 123.123V165.123ZM1850.64 123.123H2040.64C2040.64 123.123 2033.14 89.6226 2016.64 69.1225C1997.86 45.7819 1947.14 42.6225 1947.14 42.6225C1947.14 42.6225 1905.14 39.1226 1872.64 71.6226C1856.54 87.7243 1850.64 123.123 1850.64 123.123Z" fill="none" stroke="#7B1F2C" stroke-width="9" stroke-linejoin="round"/>








</svg>
